<svg width="74" height="57" viewBox="0 0 74 57" fill="none" xmlns="http://www.w3.org/2000/svg">
<path d="M7.00006 5.12189V3.91876C7.00006 2.9615 7.39515 2.04344 8.09841 1.36655C8.80167 0.689659 9.7555 0.309387 10.7501 0.309387H30.7501C33.3576 0.309387 35.6576 1.59192 37.0001 3.53617C37.6844 2.54378 38.6132 1.72979 39.7037 1.16677C40.7943 0.603754 42.0126 0.309206 43.2501 0.309387H63.2501C64.2446 0.309387 65.1984 0.689659 65.9017 1.36655C66.605 2.04344 67.0001 2.9615 67.0001 3.91876V5.12189H68.2476C71.0101 5.12189 73.2501 7.26345 73.2501 9.92236V48.4224L73.2476 48.5836V50.8286C73.2476 52.8186 71.5726 54.45 69.4951 54.45H41.3301C40.8917 55.1822 40.2607 55.7902 39.5006 56.2131C38.7404 56.6359 37.878 56.8585 37.0001 56.8585C36.1221 56.8585 35.2597 56.6359 34.4995 56.2131C33.7394 55.7902 33.1084 55.1822 32.6701 54.45H4.50006C2.42506 54.45 0.747559 52.8426 0.747559 50.8527V9.92236C0.747559 7.26345 2.98756 5.12189 5.75006 5.12189H7.00006ZM10.7501 2.71564C10.4185 2.71564 10.1006 2.84239 9.86618 3.06802C9.63176 3.29365 9.50006 3.59967 9.50006 3.91876V40.0125C9.50006 40.3316 9.63176 40.6376 9.86618 40.8633C10.1006 41.0889 10.4185 41.2156 10.7501 41.2156H31.4101C33.0291 41.2156 34.585 41.8203 35.7501 42.9024V7.52814C35.7501 6.25178 35.2233 5.02771 34.2856 4.12519C33.3479 3.22267 32.0761 2.71564 30.7501 2.71564H10.7501ZM38.2501 7.52814V42.9024C39.4151 41.8203 40.971 41.2156 42.5901 41.2156H63.2501C63.5816 41.2156 63.8995 41.0889 64.1339 40.8633C64.3684 40.6376 64.5001 40.3316 64.5001 40.0125V3.91876C64.5001 3.59967 64.3684 3.29365 64.1339 3.06802C63.8995 2.84239 63.5816 2.71564 63.2501 2.71564H43.2501C41.924 2.71564 40.6522 3.22267 39.7145 4.12519C38.7768 5.02771 38.2501 6.25178 38.2501 7.52814ZM37.0051 44.5315H36.9951L37.0001 44.5411L37.0051 44.5315ZM5.30506 7.56664C4.72918 7.6645 4.20753 7.95452 3.83172 8.38577C3.45591 8.81701 3.24997 9.3619 3.25006 9.92476V48.4464C3.25006 49.7699 4.36256 50.8406 5.75256 50.8406H33.3901L33.7501 51.4422C34.0789 51.992 34.5524 52.4486 35.123 52.7662C35.6935 53.0837 36.341 53.2509 37.0001 53.2509C37.6591 53.2509 38.3066 53.0837 38.8771 52.7662C39.4477 52.4486 39.9213 51.992 40.2501 51.4422L40.6101 50.8406H68.2476C69.6276 50.8406 70.7501 49.7554 70.7501 48.4224V9.92236C70.7501 9.35915 70.5438 8.81398 70.1674 8.38268C69.7911 7.95139 69.2689 7.66159 68.6926 7.56423L69.5001 8.73126V43.6219C69.5001 44.5792 69.105 45.4972 68.4017 46.1741C67.6984 46.851 66.7446 47.2313 65.7501 47.2313H38.3976L37.0001 49.9215L35.6026 47.2313H8.25006C7.2555 47.2313 6.30167 46.851 5.59841 46.1741C4.89515 45.4972 4.50006 44.5792 4.50006 43.6219V8.73126L5.30506 7.56664Z" fill="#16677A"/>
</svg>
