<svg width="16" height="16" viewBox="0 0 16 16" fill="none" xmlns="http://www.w3.org/2000/svg">
<g id="ic_google logo">
<path id="Path" d="M16 8.18387C16 7.64007 15.955 7.09333 15.8591 6.55835H8.16107V9.6389H12.5693C12.3864 10.6324 11.7986 11.5113 10.938 12.0698V14.0687H13.568C15.1123 12.6754 16 10.6177 16 8.18387Z" fill="#4285F4"/>
<path id="Path_2" d="M8.16088 16C10.362 16 12.2183 15.2916 13.5708 14.0688L10.9408 12.07C10.2091 12.5579 9.26444 12.8342 8.16387 12.8342C6.03471 12.8342 4.22942 11.4262 3.58167 9.5332H0.867737V11.5938C2.25319 14.2951 5.07509 16 8.16088 16Z" fill="#34A853"/>
<path id="Path_3" d="M3.57905 9.5332C3.23718 8.53967 3.23718 7.46382 3.57905 6.47029V4.40973H0.868147C-0.289382 6.67017 -0.289382 9.33332 0.868147 11.5938L3.57905 9.5332Z" fill="#54A3FF"/>
<path id="Path_4" d="M8.16088 3.16633C9.32442 3.1487 10.449 3.57786 11.2916 4.36563L13.6217 2.08167C12.1463 0.723645 10.1881 -0.0229765 8.16088 0.000539092C5.07509 0.000539092 2.25319 1.70542 0.867737 4.40972L3.57867 6.47028C4.22342 4.57433 6.03171 3.16633 8.16088 3.16633Z" fill="#EA4335"/>
</g>
</svg>
