<svg width="17" height="16" viewBox="0 0 17 16" fill="none" xmlns="http://www.w3.org/2000/svg">
<g id="skill-icons:linkedin" clip-path="url(#clip0_68_955)">
<g id="Group">
<path id="Vector" d="M12.75 0H4.25C2.17893 0 0.5 1.67893 0.5 3.75V12.25C0.5 14.3211 2.17893 16 4.25 16H12.75C14.8211 16 16.5 14.3211 16.5 12.25V3.75C16.5 1.67893 14.8211 0 12.75 0Z" fill="white"/>
<path id="Vector_2" d="M12.75 0H4.25C2.17893 0 0.5 1.67893 0.5 3.75V12.25C0.5 14.3211 2.17893 16 4.25 16H12.75C14.8211 16 16.5 14.3211 16.5 12.25V3.75C16.5 1.67893 14.8211 0 12.75 0Z" fill="#0A66C2"/>
<path id="Vector_3" d="M12.0447 13.6053H13.8741C13.9404 13.6053 14.0039 13.579 14.0508 13.5321C14.0977 13.4852 14.124 13.4217 14.1241 13.3554L14.125 9.49025C14.125 7.47006 13.6897 5.91725 11.3289 5.91725C10.4314 5.88388 9.58512 6.3465 9.12844 7.119C9.1262 7.12275 9.12281 7.12567 9.11876 7.12731C9.11471 7.12895 9.11024 7.12922 9.10603 7.12808C9.10181 7.12694 9.09808 7.12445 9.09542 7.12099C9.09275 7.11754 9.09129 7.1133 9.09125 7.10894V6.35375C9.09125 6.28745 9.06491 6.22386 9.01803 6.17697C8.97114 6.13009 8.90755 6.10375 8.84125 6.10375H7.10519C7.03888 6.10375 6.9753 6.13009 6.92841 6.17697C6.88153 6.22386 6.85519 6.28745 6.85519 6.35375V13.355C6.85519 13.4213 6.88153 13.4849 6.92841 13.5318C6.9753 13.5787 7.03888 13.605 7.10519 13.605H8.93444C9.00074 13.605 9.06433 13.5787 9.11121 13.5318C9.1581 13.4849 9.18444 13.4213 9.18444 13.355V9.89419C9.18444 8.91563 9.37006 7.96794 10.5833 7.96794C11.7792 7.96794 11.7947 9.08769 11.7947 9.95756V13.3553C11.7947 13.4216 11.821 13.4852 11.8679 13.5321C11.9148 13.579 11.9784 13.6053 12.0447 13.6053ZM2.875 3.72675C2.875 4.46825 3.48544 5.07837 4.227 5.07837C4.96837 5.07831 5.57844 4.46781 5.57844 3.72644C5.57831 2.98506 4.96819 2.375 4.22675 2.375C3.48512 2.375 2.875 2.98525 2.875 3.72675ZM3.30994 13.6053H5.14162C5.20793 13.6053 5.27152 13.579 5.3184 13.5321C5.36529 13.4852 5.39162 13.4216 5.39162 13.3553V6.35375C5.39162 6.28745 5.36529 6.22386 5.3184 6.17697C5.27152 6.13009 5.20793 6.10375 5.14162 6.10375H3.30994C3.24363 6.10375 3.18004 6.13009 3.13316 6.17697C3.08628 6.22386 3.05994 6.28745 3.05994 6.35375V13.3553C3.05994 13.4216 3.08628 13.4852 3.13316 13.5321C3.18004 13.579 3.24363 13.6053 3.30994 13.6053Z" fill="white"/>
</g>
</g>
<defs>
<clipPath id="clip0_68_955">
<rect width="16" height="16" fill="white" transform="translate(0.5)"/>
</clipPath>
</defs>
</svg>
